{
  "accessors": [
    {
      "bufferView": 2,
      "componentType": 5126,
      "count": 14110,
      "max": [
        1.8315643072128296,
        0.6017740964889526,
        1.679673433303833
      ],
      "min": [
        -1.8444877862930298,
        -2.384150981903076,
        -1.3541195392608643
      ],
      "type": "VEC3"
    },
    {
      "bufferView": 2,
      "byteOffset": 169320,
      "componentType": 5126,
      "count": 14110,
      "max": [
        0.9999550580978394,
        0.9997716546058655,
        0.9999983310699463
      ],
      "min": [
        -0.9999598264694214,
        -0.9997162818908691,
        -0.9998212456703186
      ],
      "type": "VEC3"
    },
    {
      "bufferView": 1,
      "componentType": 5126,
      "count": 14110,
      "max": [
        0.9969543218612671,
        0.9590229988098145
      ],
      "min": [
        0.001891241641715169,
        0.006353139411658049
      ],
      "type": "VEC2"
    },
    {
      "bufferView": 0,
      "componentType": 5125,
      "count": 82704,
      "type": "SCALAR"
    },
    {
      "bufferView": 2,
      "byteOffset": 338640,
      "componentType": 5126,
      "count": 11418,
      "max": [
        0.23553459346294403,
        -0.7882385849952698,
        -0.5233359336853027
      ],
      "min": [
        -0.287637323141098,
        -1.3501847982406616,
        -1.0716240406036377
      ],
      "type": "VEC3"
    },
    {
      "bufferView": 2,
      "byteOffset": 475656,
      "componentType": 5126,
      "count": 11418,
      "max": [
        0.9999773502349854,
        0.9999932646751404,
        0.9999104142189026
      ],
      "min": [
        -0.9998515248298645,
        -0.9999145269393921,
        -0.9997480511665344
      ],
      "type": "VEC3"
    },
    {
      "bufferView": 1,
      "byteOffset": 112880,
      "componentType": 5126,
      "count": 11418,
      "max": [
        0.9648270606994629,
        0.7058545351028442
      ],
      "min": [
        0.02985401265323162,
        0.26392579078674316
      ],
      "type": "VEC2"
    },
    {
      "bufferView": 0,
      "byteOffset": 330816,
      "componentType": 5125,
      "count": 66624,
      "type": "SCALAR"
    },
    {
      "bufferView": 2,
      "byteOffset": 612672,
      "componentType": 5126,
      "count": 23810,
      "max": [
        2.2976746559143066,
        -0.5282835960388184,
        2.292504072189331
      ],
      "min": [
        -2.254194498062134,
        -3.137016534805298,
        0.3357853591442108
      ],
      "type": "VEC3"
    },
    {
      "bufferView": 2,
      "byteOffset": 898392,
      "componentType": 5126,
      "count": 23810,
      "max": [
        0.9998652338981628,
        0.9997665286064148,
        0.9999918341636658
      ],
      "min": [
        -0.9999141097068787,
        -0.9998237490653992,
        -0.9999880790710449
      ],
      "type": "VEC3"
    },
    {
      "bufferView": 1,
      "byteOffset": 204224,
      "componentType": 5126,
      "count": 23810,
      "max": [
        0.9828565120697021,
        0.9802262783050537
      ],
      "min": [
        0.0058136992156505585,
        0.0014154287055134773
      ],
      "type": "VEC2"
    },
    {
      "bufferView": 0,
      "byteOffset": 597312,
      "componentType": 5125,
      "count": 138000,
      "type": "SCALAR"
    },
    {
      "bufferView": 2,
      "byteOffset": 1184112,
      "componentType": 5126,
      "count": 766,
      "max": [
        0.1673911213874817,
        -0.8446286916732788,
        -0.3500017821788788
      ],
      "min": [
        -0.2180725485086441,
        -1.1665470600128174,
        -0.837607204914093
      ],
      "type": "VEC3"
    },
    {
      "bufferView": 2,
      "byteOffset": 1193304,
      "componentType": 5126,
      "count": 766,
      "max": [
        0.9972541928291321,
        0.9997174143791199,
        0.999435544013977
      ],
      "min": [
        -0.9976053237915039,
        -0.9991292357444763,
        -0.9920651316642761
      ],
      "type": "VEC3"
    },
    {
      "bufferView": 1,
      "byteOffset": 394704,
      "componentType": 5126,
      "count": 766,
      "max": [
        0.9659501314163208,
        0.797505259513855
      ],
      "min": [
        0.02658773399889469,
        0.1810450404882431
      ],
      "type": "VEC2"
    },
    {
      "bufferView": 0,
      "byteOffset": 1149312,
      "componentType": 5125,
      "count": 4320,
      "type": "SCALAR"
    },
    {
      "bufferView": 2,
      "byteOffset": 1202496,
      "componentType": 5126,
      "count": 1284,
      "max": [
        0.3281906843185425,
        -0.26930564641952515,
        -0.8446964025497437
      ],
      "min": [
        -0.4041287899017334,
        -0.521429181098938,
        -1.0964423418045044
      ],
      "type": "VEC3"
    },
    {
      "bufferView": 2,
      "byteOffset": 1217904,
      "componentType": 5126,
      "count": 1284,
      "max": [
        0.9997442960739136,
        0.9987651109695435,
        0.9990206956863403
      ],
      "min": [
        -0.9997442960739136,
        -0.9987651705741882,
        -0.9990206360816956
      ],
      "type": "VEC3"
    },
    {
      "bufferView": 1,
      "byteOffset": 400832,
      "componentType": 5126,
      "count": 1284,
      "max": [
        0.9928184747695923,
        0.9891357421875
      ],
      "min": [
        0.05162942409515381,
        0.05165126919746399
      ],
      "type": "VEC2"
    },
    {
      "bufferView": 0,
      "byteOffset": 1166592,
      "componentType": 5125,
      "count": 7296,
      "type": "SCALAR"
    }
  ],
  "asset": {
    "extras": {
      "author": "andrdudka (https://sketchfab.com/andrdudka)",
      "license": "CC-BY-4.0 (http://creativecommons.org/licenses/by/4.0/)",
      "source": "https://sketchfab.com/3d-models/feyd-rautha-harkonnen-dune-2-likeness-sculpt-69ffe7a6bc1d4ca3a33d1cb138e85970",
      "title": "Feyd-Rautha Harkonnen Dune 2 likeness sculpt"
    },
    "generator": "Sketchfab-15.25.0",
    "version": "2.0"
  },
  "bufferViews": [
    {
      "buffer": 0,
      "byteLength": 1195776,
      "name": "floatBufferViews",
      "target": 34963
    },
    {
      "buffer": 0,
      "byteLength": 411104,
      "byteOffset": 1195776,
      "byteStride": 8,
      "name": "floatBufferViews",
      "target": 34962
    },
    {
      "buffer": 0,
      "byteLength": 1233312,
      "byteOffset": 1606880,
      "byteStride": 12,
      "name": "floatBufferViews",
      "target": 34962
    }
  ],
  "buffers": [
    {
      "byteLength": 2840192,
      "uri": "scene.bin"
    }
  ],
  "extensionsUsed": [
    "KHR_materials_unlit"
  ],
  "images": [
    {
      "uri": "textures/FeydHead_baseColor.jpeg"
    },
    {
      "uri": "textures/Teeth_baseColor.jpeg"
    },
    {
      "uri": "textures/CLothing_baseColor.jpeg"
    },
    {
      "uri": "textures/Tongue_baseColor.jpeg"
    }
  ],
  "materials": [
    {
      "doubleSided": true,
      "extensions": {
        "KHR_materials_unlit": {}
      },
      "name": "FeydHead",
      "pbrMetallicRoughness": {
        "baseColorTexture": {
          "index": 0
        },
        "metallicFactor": 0.0
      }
    },
    {
      "doubleSided": true,
      "extensions": {
        "KHR_materials_unlit": {}
      },
      "name": "Teeth",
      "pbrMetallicRoughness": {
        "baseColorTexture": {
          "index": 1
        },
        "metallicFactor": 0.0
      }
    },
    {
      "doubleSided": true,
      "extensions": {
        "KHR_materials_unlit": {}
      },
      "name": "CLothing",
      "pbrMetallicRoughness": {
        "baseColorTexture": {
          "index": 2
        },
        "metallicFactor": 0.0
      }
    },
    {
      "doubleSided": true,
      "extensions": {
        "KHR_materials_unlit": {}
      },
      "name": "Tongue",
      "pbrMetallicRoughness": {
        "baseColorTexture": {
          "index": 3
        },
        "metallicFactor": 0.0
      }
    },
    {
      "doubleSided": true,
      "extensions": {
        "KHR_materials_unlit": {}
      },
      "name": "EyeExternal",
      "pbrMetallicRoughness": {
        "baseColorFactor": [
          0.0030822762267459346,
          0.0030822762267459346,
          0.0030822762267459346,
          1.0
        ],
        "metallicFactor": 0.0
      }
    }
  ],
  "meshes": [
    {
      "name": "Object_0",
      "primitives": [
        {
          "attributes": {
            "NORMAL": 1,
            "POSITION": 0,
            "TEXCOORD_0": 2
          },
          "indices": 3,
          "material": 0,
          "mode": 4
        }
      ]
    },
    {
      "name": "Object_1",
      "primitives": [
        {
          "attributes": {
            "NORMAL": 5,
            "POSITION": 4,
            "TEXCOORD_0": 6
          },
          "indices": 7,
          "material": 1,
          "mode": 4
        }
      ]
    },
    {
      "name": "Object_2",
      "primitives": [
        {
          "attributes": {
            "NORMAL": 9,
            "POSITION": 8,
            "TEXCOORD_0": 10
          },
          "indices": 11,
          "material": 2,
          "mode": 4
        }
      ]
    },
    {
      "name": "Object_3",
      "primitives": [
        {
          "attributes": {
            "NORMAL": 13,
            "POSITION": 12,
            "TEXCOORD_0": 14
          },
          "indices": 15,
          "material": 3,
          "mode": 4
        }
      ]
    },
    {
      "name": "Object_4",
      "primitives": [
        {
          "attributes": {
            "NORMAL": 17,
            "POSITION": 16,
            "TEXCOORD_0": 18
          },
          "indices": 19,
          "material": 4,
          "mode": 4
        }
      ]
    }
  ],
  "nodes": [
    {
      "children": [
        1
      ],
      "matrix": [
        1.0,
        0.0,
        0.0,
        0.0,
        0.0,
        2.220446049250313e-16,
        -1.0,
        0.0,
        0.0,
        1.0,
        2.220446049250313e-16,
        0.0,
        0.0,
        0.0,
        0.0,
        1.0
      ],
      "name": "Sketchfab_model"
    },
    {
      "children": [
        2
      ],
      "name": "root"
    },
    {
      "children": [
        3,
        5,
        7,
        9,
        11
      ],
      "matrix": [
        1.0,
        0.0,
        0.0,
        0.0,
        0.0,
        2.220446049250313e-16,
        1.0,
        0.0,
        0.0,
        -1.0,
        2.220446049250313e-16,
        0.0,
        0.0,
        0.0,
        0.0,
        1.0
      ],
      "name": "GLTF_SceneRootNode"
    },
    {
      "children": [
        4
      ],
      "name": "FeydHead_0"
    },
    {
      "mesh": 0,
      "name": "Object_4"
    },
    {
      "children": [
        6
      ],
      "name": "Teeth_1"
    },
    {
      "mesh": 1,
      "name": "Object_6"
    },
    {
      "children": [
        8
      ],
      "name": "Armor_2"
    },
    {
      "mesh": 2,
      "name": "Object_8"
    },
    {
      "children": [
        10
      ],
      "name": "Tongue_3"
    },
    {
      "mesh": 3,
      "name": "Object_10"
    },
    {
      "children": [
        12
      ],
      "name": "Eyes_4"
    },
    {
      "mesh": 4,
      "name": "Object_12"
    }
  ],
  "samplers": [
    {
      "magFilter": 9729,
      "minFilter": 9987,
      "wrapS": 10497,
      "wrapT": 10497
    }
  ],
  "scene": 0,
  "scenes": [
    {
      "name": "Sketchfab_Scene",
      "nodes": [
        0
      ]
    }
  ],
  "textures": [
    {
      "sampler": 0,
      "source": 0
    },
    {
      "sampler": 0,
      "source": 1
    },
    {
      "sampler": 0,
      "source": 2
    },
    {
      "sampler": 0,
      "source": 3
    }
  ]
}
